HIERARCHY
ROOT Pelvis
{
	OFFSET 0.000000 0.000000 0.000000
	CHANNELS 6 Xposition Yposition Zposition Xrotation Yrotation Zrotation
	JOINT LeftUpLeg_virtual
	{
		OFFSET 0.000000 0.000000 0.000000
		CHANNELS 3 Xrotation Yrotation Zrotation
		JOINT LeftUpLeg
		{
			OFFSET 18.735201 -5.666702 -4.541200
			CHANNELS 3 Xrotation Yrotation Zrotation
			JOINT LeftLeg
			{
				OFFSET -0.021200 -31.938179 0.493100
				CHANNELS 3 Xrotation Yrotation Zrotation
				JOINT LeftFoot
				{
					OFFSET 0.021200 -31.938179 -4.336299
					CHANNELS 3 Xrotation Yrotation Zrotation
					JOINT LeftToeBase
					{
						OFFSET 0.943001 -26.722000 15.023500
						CHANNELS 3 Xrotation Yrotation Zrotation
						End Site
						{
							OFFSET 0 0 0
						}
					}
				}
			}
		}
	}
	JOINT RightUpLeg_virtual
	{
		OFFSET 0.000000 0.000000 0.000000
		CHANNELS 3 Xrotation Yrotation Zrotation
		JOINT RightUpLeg
		{
			OFFSET -18.735201 -5.666702 -4.541200
			CHANNELS 3 Xrotation Yrotation Zrotation
			JOINT RightLeg
			{
				OFFSET 0.018946 -31.938133 0.493100
				CHANNELS 3 Xrotation Yrotation Zrotation
				JOINT RightFoot
				{
					OFFSET -0.018946 -31.938126 -4.336299
					CHANNELS 3 Xrotation Yrotation Zrotation
					JOINT RightToeBase
					{
						OFFSET -0.943001 -26.722004 15.023500
						CHANNELS 3 Xrotation Yrotation Zrotation
						End Site
						{
							OFFSET 0 0 0
						}
					}
				}
			}
		}
	}
	JOINT Hips_virtual
	{
		OFFSET 0.000000 0.000000 0.000000
		CHANNELS 3 Xrotation Yrotation Zrotation
		JOINT Hips
		{
			OFFSET -0.000000 -0.000000 -0.000000
			CHANNELS 3 Xrotation Yrotation Zrotation
			JOINT Spine
			{
				OFFSET 0.000000 10.199997 -0.299500
				CHANNELS 3 Xrotation Yrotation Zrotation
				JOINT Spine1
				{
					OFFSET 0.000000 11.900002 -1.516600
					CHANNELS 3 Xrotation Yrotation Zrotation
					JOINT Spine2
					{
						OFFSET 0.000000 13.600006 -2.842500
						CHANNELS 3 Xrotation Yrotation Zrotation
						JOINT Neck_virtual
						{
							OFFSET 0.000000 0.000000 0.000000
							CHANNELS 3 Xrotation Yrotation Zrotation
							JOINT Neck
							{
								OFFSET 0.000000 9.624100 -2.890100
								CHANNELS 3 Xrotation Yrotation Zrotation
								JOINT Head
								{
									OFFSET 0.000000 14.068802 -1.351900
									CHANNELS 3 Xrotation Yrotation Zrotation
									End Site
									{
										OFFSET 0 0 0
									}
								}
							}
						}
						JOINT LeftShoulder_virtual
						{
							OFFSET 0.000000 0.000000 0.000000
							CHANNELS 3 Xrotation Yrotation Zrotation
							JOINT LeftShoulder
							{
								OFFSET 15.263000 10.923401 -0.547700
								CHANNELS 3 Xrotation Yrotation Zrotation
								JOINT LeftArm
								{
									OFFSET 25.438599 -2.830597 -13.032500
									CHANNELS 3 Xrotation Yrotation Zrotation
									JOINT LeftForeArm
									{
										OFFSET 29.960503 0.000000 0.000000
										CHANNELS 3 Xrotation Yrotation Zrotation
										JOINT LeftHand
										{
											OFFSET 27.849251 0.000000 0.000000
											CHANNELS 3 Xrotation Yrotation Zrotation
											End Site
											{
												OFFSET 0 0 0
											}
										}
									}
								}
							}
						}
						JOINT RightShoulder_virtual
						{
							OFFSET 0.000000 0.000000 0.000000
							CHANNELS 3 Xrotation Yrotation Zrotation
							JOINT RightShoulder
							{
								OFFSET -15.263000 10.923401 -0.547700
								CHANNELS 3 Xrotation Yrotation Zrotation
								JOINT RightArm
								{
									OFFSET -25.438599 -2.830597 -13.032500
									CHANNELS 3 Xrotation Yrotation Zrotation
									JOINT RightForeArm
									{
										OFFSET -29.960503 0.000000 0.000000
										CHANNELS 3 Xrotation Yrotation Zrotation
										JOINT RightHand
										{
											OFFSET -27.849251 0.000000 0.000000
											CHANNELS 3 Xrotation Yrotation Zrotation
											End Site
											{
												OFFSET 0 0 0
											}
										}
									}
								}
							}
						}
					}
				}
			}
		}
	}
}
MOTION
Frames: 13
Frame Time: 0.03333333
-5.505624 82.323540 10.401339 0.000000 0.000000 0.000000 3.881274 -66.435187 1.643867 -20.546307 50.513569 33.671395 59.276726 11.174954 -4.494029 -39.588439 6.723411 4.076069 0.000000 0.000000 0.000000 3.881274 -66.435187 1.643867 -18.288293 4.307117 -32.271800 32.938437 4.152142 -0.010645 -18.206183 -3.389494 29.572735 0.000000 0.000000 0.000000 3.881274 -66.435187 1.643867 0.000000 -0.000002 0.000000 7.956947 -7.875953 7.011524 -0.190745 -11.250284 6.028634 0.000000 0.000000 0.000000 -11.447045 -11.562246 5.338309 1.005911 7.981495 1.488745 0.000000 0.000000 0.000000 -11.447045 -11.562246 5.338309 7.036031 -21.717439 28.304178 -17.434032 -22.035024 -5.063779 -0.024461 -18.120270 -4.741182 0.000000 0.000000 0.000000 -11.447045 -11.562246 5.338309 0.930708 -15.187711 4.991302 -54.595229 -4.695021 -21.803116 -1.943013 39.705467 7.057015 0.000000 0.000000 0.000000 
-5.916619 82.881699 11.378206 0.000000 0.000000 0.000000 0.141969 -63.559739 -1.631918 -17.314217 50.608270 30.999657 56.820661 11.701800 -3.974385 -39.950357 5.714742 6.121553 0.000000 0.000000 0.000000 0.141969 -63.559739 -1.631918 -13.922341 3.738472 -32.094550 34.906939 1.904370 1.106018 -22.042397 -4.722193 25.823173 0.000000 0.000000 0.000000 0.141969 -63.559739 -1.631918 0.000000 0.000001 0.000000 7.681069 -7.895471 6.979570 -0.769985 -11.249930 5.778991 0.000000 0.000000 0.000000 -12.026595 -11.514011 5.093315 1.393003 7.404257 1.639949 0.000000 0.000000 0.000000 -12.026595 -11.514011 5.093315 7.857573 -21.919609 30.974457 -21.326274 -25.568337 -2.826540 -0.025388 -17.497932 -4.137774 0.000000 0.000000 0.000000 -12.026595 -11.514011 5.093315 0.146580 -15.459973 2.713257 -57.506122 -5.072669 -23.534931 -0.738061 40.895174 7.076517 0.000000 0.000000 0.000000 
-6.294072 83.420792 12.448469 0.000000 0.000000 0.000000 -2.798065 -60.438705 -3.817672 -13.566853 50.406601 28.800469 54.493466 10.629256 -3.980194 -39.664008 5.544263 6.605836 0.000000 0.000000 0.000000 -2.798065 -60.438705 -3.817672 -9.285307 3.011987 -32.259277 36.459260 -0.877212 3.200775 -24.716054 -6.176853 21.815365 0.000000 0.000000 0.000000 -2.798065 -60.438705 -3.817672 0.000000 0.000000 0.000000 7.319991 -7.908487 6.851418 -1.527754 -11.209400 5.298611 0.000000 0.000000 0.000000 -12.782775 -11.382098 4.629935 1.930089 6.827266 1.723333 0.000000 0.000000 0.000000 -12.782775 -11.382098 4.629935 8.584867 -21.755782 33.610155 -27.651761 -28.364621 -2.405167 -0.026666 -18.419770 -2.358923 0.000000 0.000000 0.000000 -12.782775 -11.382098 4.629935 -0.667861 -15.637525 0.241172 -60.363545 -5.259258 -25.202684 0.541720 42.083234 7.030222 0.000000 0.000000 0.000000 
-6.606842 83.863235 13.780375 0.000000 0.000000 0.000000 -4.337150 -57.366062 -4.714531 -9.701824 50.035562 27.048628 52.112827 8.624877 -4.324641 -39.123863 6.037243 5.422913 0.000000 0.000000 0.000000 -4.337150 -57.366062 -4.714531 -5.279451 2.180061 -32.674228 37.451351 -3.832712 6.468582 -25.299091 -7.170569 17.146539 0.000000 0.000000 0.000000 -4.337150 -57.366062 -4.714531 0.000000 0.000000 0.000000 6.842462 -7.937026 6.716596 -2.535070 -11.161999 4.689575 0.000000 0.000000 0.000000 -13.787172 -11.218756 4.041876 2.523938 6.263478 1.765152 0.000000 0.000000 0.000000 -13.787172 -11.218756 4.041876 8.478569 -20.502872 36.126267 -34.534748 -32.188428 -4.144994 -0.027687 -17.857393 -0.308375 0.000000 0.000000 0.000000 -13.787172 -11.218756 4.041876 -1.505392 -15.764133 -2.396702 -63.043370 -5.187513 -26.544793 1.665750 43.271844 6.930262 0.000000 0.000000 0.000000 
-6.887796 84.309212 15.379127 0.000000 0.000000 0.000000 -4.915326 -54.695977 -4.983331 -5.219992 49.948644 25.215462 48.463618 6.920121 -4.486023 -38.197987 6.513802 2.642412 0.000000 0.000000 0.000000 -4.915326 -54.695977 -4.983331 -2.420916 1.588714 -32.473762 37.653706 -7.438982 9.463887 -22.692815 -7.534330 11.996045 0.000000 0.000000 0.000000 -4.915326 -54.695977 -4.983331 0.000000 0.000003 0.000000 6.305670 -7.928520 6.534286 -3.644119 -11.072144 4.108839 0.000000 0.000000 0.000000 -14.890635 -11.019322 3.490230 3.058453 5.745563 1.788938 0.000000 0.000000 0.000000 -14.890635 -11.019322 3.490230 7.074327 -18.434161 38.400539 -38.084619 -35.687974 -5.573835 -0.028791 -17.900206 1.555082 0.000000 0.000000 0.000000 -14.890635 -11.019322 3.490230 -2.360065 -15.858977 -5.167572 -65.467964 -4.894198 -27.307868 2.380881 44.448559 6.818860 0.000000 0.000000 0.000000 
-7.065626 84.572060 17.132618 0.000000 0.000000 0.000000 -4.568048 -52.406631 -4.742837 -0.537121 49.584670 23.030792 44.103655 5.414942 -4.304179 -37.354622 6.896598 -1.136421 0.000000 0.000000 0.000000 -4.568048 -52.406631 -4.742837 -0.785524 1.712023 -31.828169 37.918147 -11.839205 11.907889 -18.054738 -8.348644 7.122292 0.000000 0.000000 0.000000 -4.568048 -52.406631 -4.742837 0.000000 0.000002 0.000000 5.720703 -7.875662 6.379211 -4.852883 -10.888858 3.560733 0.000000 0.000000 0.000000 -16.089528 -10.734460 2.989330 3.462803 5.299125 1.777422 0.000000 0.000000 0.000000 -16.089528 -10.734460 2.989330 4.547356 -15.821851 40.479932 -37.948657 -39.544132 -4.999499 -0.029987 -18.282507 3.770944 0.000000 0.000000 0.000000 -16.089528 -10.734460 2.989330 -3.245291 -15.858868 -8.173202 -67.496831 -4.528284 -27.440275 2.615141 45.671125 6.693630 0.000000 0.000000 0.000000 
-7.113513 84.573097 18.971142 0.000000 0.000000 0.000000 -3.629474 -50.533817 -4.307808 4.044742 48.891099 20.493127 39.248955 3.875918 -3.319522 -36.677289 7.556400 -5.487382 0.000000 0.000000 0.000000 -3.629474 -50.533817 -4.307808 -2.746675 3.613227 -28.898008 42.006261 -16.905114 8.919565 -12.796487 -10.584209 6.690451 0.000000 0.000000 0.000000 -3.629474 -50.533817 -4.307808 0.000000 0.000002 0.000000 5.177357 -7.782497 6.257967 -5.980716 -10.618304 3.055380 0.000000 0.000000 0.000000 -17.203954 -10.372255 2.547704 3.724550 4.895259 1.780833 0.000000 0.000000 0.000000 -17.203954 -10.372255 2.547704 1.383182 -12.755048 42.528689 -34.235961 -43.671912 -1.374654 -0.031302 -19.264654 5.630128 0.000000 0.000000 0.000000 -17.203954 -10.372255 2.547704 -4.174405 -15.821107 -11.641652 -68.947618 -4.309888 -26.975793 2.622770 46.978191 6.455899 0.000000 0.000000 0.000000 
-7.132132 84.167137 20.673777 0.000000 0.000000 0.000000 -3.132555 -48.893592 -4.385550 8.283858 48.109984 18.409211 34.765202 2.591699 -1.388751 -36.010492 8.811859 -10.873706 0.000000 0.000000 0.000000 -3.132555 -48.893592 -4.385550 -9.045235 6.631732 -22.447859 46.898825 -22.322539 -0.907354 -1.093892 -12.108926 8.712842 0.000000 0.000000 0.000000 -3.132555 -48.893592 -4.385550 0.000000 -0.000001 0.000000 4.866047 -7.678658 6.076374 -6.626075 -10.369246 2.550212 0.000000 0.000000 0.000000 -17.836238 -10.031130 2.102020 3.839263 4.508431 1.844287 0.000000 0.000000 0.000000 -17.836238 -10.031130 2.102020 -1.571651 -10.025499 45.736077 -26.996748 -45.609630 5.554218 -0.032801 -20.722963 7.301996 0.000000 0.000000 0.000000 -17.836238 -10.031130 2.102020 -5.133808 -15.689330 -15.455998 -69.918638 -4.280975 -26.149741 2.603059 48.377393 6.075901 0.000000 0.000000 0.000000 
-7.367467 83.192337 22.088816 0.000000 0.000000 0.000000 -2.813229 -46.938843 -4.439824 10.905951 47.332839 17.947705 32.009149 1.319019 0.677512 -35.581789 10.334782 -16.609681 0.000000 0.000000 0.000000 -2.813229 -46.938843 -4.439824 -15.800109 10.006698 -19.119363 52.331933 -22.713036 -3.432750 11.363142 -10.565149 4.917619 0.000000 0.000000 0.000000 -2.813229 -46.938843 -4.439824 0.000000 0.000001 0.000000 4.700191 -7.456075 5.617279 -6.920795 -10.035140 1.940076 0.000000 0.000000 0.000000 -18.113472 -9.586527 1.570266 3.795483 4.175654 1.855588 0.000000 0.000000 0.000000 -18.113472 -9.586527 1.570266 -4.223495 -7.219722 49.579558 -21.201810 -45.448840 11.996604 -0.034770 -23.714466 9.158064 0.000000 0.000000 0.000000 -18.113472 -9.586527 1.570266 -6.110767 -15.442214 -19.377172 -70.708331 -4.296215 -25.087865 2.518683 49.772702 5.625115 0.000000 0.000000 0.000000 
-7.895917 81.834930 23.340170 0.000000 0.000000 0.000000 -2.603781 -44.368714 -4.389773 11.163062 46.823341 19.891630 31.721564 -0.362309 1.866745 -35.855297 11.450231 -21.179853 0.000000 0.000000 0.000000 -2.603781 -44.368714 -4.389773 -22.436987 12.064989 -16.462472 57.351842 -17.883880 -3.422587 22.585129 -6.040870 -0.060485 0.000000 0.000000 0.000000 -2.603781 -44.368714 -4.389773 0.000000 -0.000001 0.000000 4.587773 -7.145583 4.858801 -7.057646 -9.612544 1.146138 0.000000 0.000000 0.000000 -18.227128 -9.019996 0.875851 3.628094 3.853232 1.827203 0.000000 0.000000 0.000000 -18.227128 -9.019996 0.875851 -6.516913 -4.521657 53.396694 -20.893404 -44.857981 13.968321 -0.037122 -27.703795 10.795949 0.000000 0.000000 0.000000 -18.227128 -9.019996 0.875851 -7.078779 -15.077559 -23.270525 -71.385148 -4.350432 -23.893842 2.417522 51.159732 5.134705 0.000000 0.000000 0.000000 
-8.574152 80.506889 24.369646 0.000000 0.000000 0.000000 -2.272579 -41.185132 -4.206682 8.073839 46.283892 24.748965 34.114500 -3.115826 1.867282 -37.283305 11.306110 -23.314383 0.000000 0.000000 0.000000 -2.272579 -41.185132 -4.206682 -24.655286 12.074676 -17.034917 57.778203 -7.513174 -0.890724 36.210637 -0.285135 2.795224 0.000000 0.000000 0.000000 -2.272579 -41.185132 -4.206682 0.000000 0.000003 0.000000 4.494226 -6.858414 3.986900 -7.143793 -9.227466 0.256466 0.000000 0.000000 0.000000 -18.288648 -8.472040 0.080250 3.336357 3.618720 1.661791 0.000000 0.000000 0.000000 -18.288648 -8.472040 0.080250 -8.089607 -2.475281 55.396693 -26.477163 -44.260060 10.782315 -0.041285 -34.023013 10.018861 0.000000 0.000000 0.000000 -18.288648 -8.472040 0.080250 -8.036738 -14.589446 -27.255139 -71.895316 -4.458934 -22.538658 2.272443 52.536012 4.605198 0.000000 0.000000 0.000000 
-9.006083 79.757866 25.102564 0.000000 0.000000 0.000000 -1.946137 -37.077252 -4.309266 2.224638 45.012668 31.501864 37.676198 -6.343775 1.666545 -38.641512 10.146325 -23.890038 0.000000 0.000000 0.000000 -1.946137 -37.077252 -4.309266 -25.358839 10.098800 -17.600836 59.926878 -0.101931 1.659825 42.185523 3.439850 8.991282 0.000000 0.000000 0.000000 -1.946137 -37.077252 -4.309266 0.000000 -0.000001 0.000000 4.476676 -6.654393 3.215078 -7.127127 -8.926937 -0.840840 0.000000 0.000000 0.000000 -18.244021 -7.967568 -0.935137 2.933748 3.314901 1.555132 0.000000 0.000000 0.000000 -18.244021 -7.967568 -0.935137 -8.935013 -1.248863 56.265715 -40.126866 -43.201455 0.780087 -0.048464 -42.253329 6.069897 0.000000 0.000000 0.000000 -18.244021 -7.967568 -0.935137 -8.996554 -13.960031 -31.421903 -72.259816 -4.619131 -20.967458 2.007882 54.020376 4.067203 0.000000 0.000000 0.000000 
-9.346863 79.073166 25.480877 0.000000 0.000000 0.000000 -1.478755 -32.038293 -4.217730 -5.387462 42.084344 38.781456 42.662871 -9.947532 1.696969 -39.998646 8.406396 -23.744885 0.000000 0.000000 0.000000 -1.478755 -32.038293 -4.217730 -28.756340 8.044827 -19.430082 69.412740 2.876078 3.276910 40.248215 6.297018 14.836639 0.000000 0.000000 0.000000 -1.478755 -32.038293 -4.217730 0.000000 0.000000 0.000000 4.570420 -6.444949 2.292232 -6.873878 -8.663975 -2.131936 0.000000 0.000000 0.000000 -17.956105 -7.463426 -2.147347 2.369198 2.894026 1.570865 0.000000 0.000000 0.000000 -17.956105 -7.463426 -2.147347 -9.461678 -0.917805 56.501859 -55.062366 -38.589394 -10.695931 -0.058850 -50.609332 -1.552719 0.000000 0.000000 0.000000 -17.956105 -7.463426 -2.147347 -10.061365 -13.043349 -36.704545 -72.466880 -4.759329 -18.372915 1.078613 55.940967 3.540088 0.000000 0.000000 0.000000 
